# xmcd CD database file
#
# Track frame offsets:
#	150
#	3210
#	31217
#	59492
#	84653
#	97719
#	121290
#	144029
#	176635
#	181334
#	221739
#
# Disc length: 3190 seconds
#
# Revision: 0
# Processed by: cddbd v1.4PL0 Copyright (c) Steve Scherf et al.
# Submitted via: CDex 1.50
#
DISCID=860c740b
DTITLE=Schlosser Weber Böhm Huber Binder - L 14.16 
DYEAR=2003
DGENRE=Jazz
TTITLE0=Introduction: Miniature 1 - Blauer Jatz
TTITLE1=Staircase to the future
TTITLE2=Hymn for Christine
TTITLE3=All the things you are
TTITLE4=Miniature 2 - Masha
TTITLE5=Sideburns
TTITLE6=We'll see
TTITLE7=Swingo
TTITLE8=Miniature 3 - Blues for Hub
TTITLE9=In a Sentimental Mood
TTITLE10=Rostock, wir kommen
EXTD=YEAR: 2003
EXTT0=
EXTT1=
EXTT2=
EXTT3=
EXTT4=
EXTT5=
EXTT6=
EXTT7=
EXTT8=
EXTT9=
EXTT10=
PLAYORDER=
